<svg width="12" height="12" viewBox="0 0 12 12" fill="none" xmlns="http://www.w3.org/2000/svg">
<path fill-rule="evenodd" clip-rule="evenodd" d="M0.716473 6.46515L1.03234 6.1622L4.86384 2.32772L6.44111 0.749268C6.68903 0.501126 7.03164 0.375228 7.3811 0.404087L10.2185 0.637651C10.6989 0.67717 11.0803 1.05453 11.1252 1.53491L11.1767 2.08625L11.3947 4.4178C11.4278 4.77234 11.3025 5.12012 11.0509 5.37188L7.14039 9.2855L5.3309 11.0832C5.12675 11.2875 4.85531 11.4 4.56658 11.4C4.27785 11.4 4.00641 11.2875 3.80227 11.0832L0.716473 7.99498C0.512328 7.79067 0.399902 7.51902 0.399902 7.23006C0.399902 6.94111 0.512328 6.66945 0.716473 6.46515ZM6.79369 1.10212L5.22311 2.67386L1.06908 6.818C0.942983 6.94419 0.881859 7.11801 0.902466 7.29894C0.917697 7.43247 0.982538 7.55548 1.07751 7.65053L4.15488 10.7303C4.38228 10.9579 4.75095 10.9579 4.97832 10.7303L10.6983 5.01896C10.8446 4.87257 10.9175 4.67039 10.8982 4.46423L10.6759 2.08625L10.6287 1.5814C10.6063 1.34242 10.4167 1.15469 10.1776 1.135L7.34022 0.901434C7.1371 0.884796 6.9378 0.957824 6.79369 1.10212Z" stroke="#BFD1E0" stroke-width="0.8"/>
</svg>
